<svg version="1.0" xmlns="http://www.w3.org/2000/svg" width="1706.667" height="1706.667" viewBox="0 0 1280 1280"><path d="M924.5 377c-40.8 18.5-54.2 25.5-79 41.3C725.7 494.8 597.1 635 490.4 805.5c-6.6 10.4-15.5 25.2-19.9 32.7-4.4 7.5-8.2 13.7-8.5 13.8-.3 0-3.2-6-6.5-13.3-22.5-50.6-48.5-90.9-70.8-109.9-17.5-14.8-32.8-20.7-50.9-19.4-9.2.6-47.3 9.1-59.8 13.2-15.4 5.2-35.4 16.5-54.5 30.9-14.4 10.8-16.5 12.9-16.5 16 0 3.3 3.3 6.5 6.8 6.5 4.4 0 16.8 3.8 23.5 7.2 10.4 5.2 17.8 10.7 27.2 20.3 28.5 29 57.2 86.2 102.1 203.7 16.1 42.1 23.8 65.7 27.9 85.4.3 1.2 9.9 10.5 21.7 21 25.9 23.1 27.5 24.4 30.3 24.4 1.5 0 5.6-3.5 12.6-10.6 16.1-16.5 35.1-33.7 62.2-56.2l24.7-20.7 3.1-9.5c51.7-156.5 148-330.5 260-470 30.9-38.5 52.3-62.2 87.1-96.5 31.8-31.5 56.2-52.6 85.1-73.8 5.3-3.9 7.7-6.4 7.7-7.8 0-2.6-11.7-30.8-13.7-33.2-.9-.9-2.3-1.7-3.2-1.7-.9.1-20.5 8.6-43.6 19z" fill="#fff"/></svg>