<svg width="178" height="46" fill="none" xmlns="http://www.w3.org/2000/svg"><path d="M18.766 38.815c-.468-.187-1.23-.28-2.286-.28-1.085 0-1.861.096-2.33.285-.467.19-.702.547-.702 1.07v2.624c0 .423.104.744.313.963.208.219.542.37 1.003.452.46.082 1.055.124 1.784.124.668 0 1.218-.044 1.649-.13.431-.086.75-.24.958-.462.209-.222.313-.538.313-.947v-.548h-1.383v.72c0 .352-.104.596-.311.731-.209.138-.625.205-1.249.205-.683 0-1.137-.07-1.36-.21-.223-.139-.334-.382-.334-.725v-2.861c0-.308.111-.533.334-.673.223-.14.661-.21 1.315-.21.654 0 1.085.07 1.294.21.207.14.311.365.311.673v.72h1.383v-.699c0-.502-.234-.846-.702-1.032ZM25.866 42.611c0 .38-.126.642-.379.786-.253.143-.676.214-1.27.214-.58 0-1-.073-1.26-.22-.26-.147-.39-.407-.39-.78v-2.656c0-.366.13-.622.39-.77.26-.147.68-.22 1.26-.22.623 0 1.055.077 1.292.231.238.154.357.407.357.759v2.656Zm.68-3.743c-.468-.215-1.245-.323-2.33-.323s-1.861.112-2.33.334c-.467.222-.702.591-.702 1.107v2.485c0 .403.108.718.323.946.216.23.55.39 1.004.48.453.089 1.021.134 1.705.134.714 0 1.293-.047 1.74-.14.445-.093.772-.253.98-.479.208-.226.312-.538.312-.941v-2.485c0-.53-.234-.903-.702-1.118ZM34.528 38.734c-.364-.133-.94-.2-1.728-.2-.461 0-.907.058-1.338.173-.43.115-.706.28-.825.495l-.178-.57h-1.137v5.324h1.382V39.61a.922.922 0 0 1 .235-.252c.111-.09.281-.168.512-.237.23-.068.531-.102.903-.102.43 0 .758.028.98.086.223.057.384.134.48.23a.557.557 0 0 1 .168.33c.015.12.022.247.022.376v3.915h1.382v-4.013c0-.25-.052-.482-.156-.693-.104-.211-.338-.384-.702-.516ZM42.063 38.685c-.423-.093-.991-.14-1.705-.14-1.085 0-1.854.106-2.308.318-.453.21-.68.507-.68.887v.322c0 .259.108.47.324.635.215.165.508.301.88.41.372.107.803.207 1.293.3.52.1.926.201 1.215.301.29.1.487.21.592.328.103.119.156.26.156.425v.301c0 .309-.13.527-.39.656-.26.13-.666.194-1.216.194-.624 0-1.055-.064-1.293-.194-.238-.129-.357-.362-.357-.699v-.612H37.17v.462c0 .35.089.632.267.844.179.211.491.365.937.462.446.098 1.07.146 1.873.146.773 0 1.382-.054 1.828-.161.446-.109.761-.264.947-.469.186-.204.279-.45.279-.736v-.247c0-.287-.097-.514-.29-.678-.194-.165-.457-.296-.792-.393a14.13 14.13 0 0 0-1.147-.274 23.334 23.334 0 0 1-1.226-.27c-.343-.085-.606-.193-.793-.322-.185-.129-.278-.294-.278-.495v-.29c0-.215.108-.394.323-.537.216-.144.635-.216 1.26-.216.55 0 .951.066 1.204.2.252.132.38.377.38.736v.516H43.3v-.452c0-.33-.1-.598-.301-.806-.2-.208-.513-.358-.937-.452ZM46.89 37.631h-1.048l-.245 1-1.07.076v.344h.98v3.861c0 .201.053.368.157.5.104.133.253.24.446.323.193.083.423.142.69.177.269.037.566.054.893.054.341 0 .661-.01.959-.032.296-.022.504-.032.624-.032v-.43c-.105 0-.276.005-.513.016-.238.01-.461.017-.669.017-.506 0-.833-.07-.98-.205a.655.655 0 0 1-.224-.506v-3.742h2.386v-.42H46.89v-1ZM53.935 38.61a6.605 6.605 0 0 0-1.115.162c-.371.085-.639.23-.803.43l-.156-.57h-1.159v5.324h1.382v-3.958c0-.251.171-.45.513-.597.341-.148.766-.235 1.27-.264.15-.028.31-.042.48-.042a9.859 9.859 0 0 1 .792.031v-.527a6.221 6.221 0 0 0-1.204.011ZM60.868 42.966c-.029.071-.104.152-.222.242-.12.09-.29.166-.514.23-.222.066-.527.098-.913.098-.55 0-.945-.048-1.182-.145-.238-.097-.375-.222-.412-.377a1.98 1.98 0 0 1-.056-.468v-3.914h-1.382v4c0 .244.052.474.156.689.104.215.341.389.713.52.372.134.944.2 1.717.2.61 0 1.096-.068 1.46-.204.364-.136.606-.29.725-.463l.111.581h1.182v-5.323h-1.383v4.334ZM69.664 38.815c-.468-.187-1.23-.28-2.285-.28-1.086 0-1.862.096-2.33.285-.468.19-.703.547-.703 1.07v2.624c0 .423.105.744.313.963.208.219.542.37 1.003.452.46.082 1.055.124 1.784.124.668 0 1.218-.044 1.65-.13.43-.086.75-.24.957-.462.209-.222.313-.538.313-.947v-.548h-1.382v.72c0 .352-.105.596-.312.731-.209.138-.625.205-1.249.205-.683 0-1.137-.07-1.36-.21-.223-.139-.334-.382-.334-.725v-2.861c0-.308.111-.533.334-.673.223-.14.661-.21 1.316-.21.653 0 1.084.07 1.293.21.207.14.312.365.312.673v.72h1.382v-.699c0-.502-.234-.846-.702-1.032ZM73.933 37.631h-1.048l-.245 1-1.07.076v.344h.98v3.861c0 .201.053.368.157.5.104.133.252.24.446.323.193.083.423.142.69.177.268.037.565.054.893.054.341 0 .66-.01.958-.032.297-.022.506-.032.624-.032v-.43c-.104 0-.275.005-.512.016-.238.01-.461.017-.669.017-.506 0-.833-.07-.981-.205a.657.657 0 0 1-.223-.506v-3.742h2.385v-.42h-2.385v-1ZM77.745 43.956h1.36v-5.325h-1.36v5.325ZM79.004 37.335a1.415 1.415 0 0 0-.568-.101 1.42 1.42 0 0 0-.569.101c-.155.069-.233.156-.233.264 0 .1.078.189.233.263.156.076.346.113.569.113.223 0 .413-.037.568-.113.157-.074.235-.166.235-.274 0-.1-.078-.184-.235-.253ZM85.882 42.611c0 .38-.125.642-.378.786-.253.143-.677.214-1.272.214-.579 0-1-.073-1.259-.22-.26-.147-.39-.407-.39-.78v-2.656c0-.366.13-.622.39-.77.26-.147.68-.22 1.26-.22.624 0 1.055.077 1.293.231.237.154.356.407.356.759v2.656Zm.681-3.743c-.468-.215-1.245-.323-2.33-.323s-1.862.112-2.33.334c-.468.222-.703.591-.703 1.107v2.485c0 .403.109.718.324.946.215.23.55.39 1.003.48.453.089 1.022.134 1.706.134.714 0 1.293-.047 1.739-.14.446-.093.773-.253.98-.479.21-.226.313-.538.313-.941v-2.485c0-.53-.234-.903-.702-1.118ZM94.544 38.734c-.364-.133-.94-.2-1.728-.2-.46 0-.907.058-1.338.173-.43.115-.706.28-.825.495l-.178-.57H89.34v5.324h1.382V39.61a.922.922 0 0 1 .234-.252c.111-.09.282-.168.513-.237.23-.068.53-.102.903-.102.43 0 .757.028.98.086.223.057.383.134.48.23a.558.558 0 0 1 .167.33c.015.12.022.247.022.376v3.915h1.383v-4.013c0-.25-.053-.482-.157-.693-.104-.211-.338-.384-.702-.516ZM106.762 38.815c-.469-.187-1.23-.28-2.285-.28-1.086 0-1.862.096-2.33.285-.468.19-.703.547-.703 1.07v2.624c0 .423.104.744.312.963.208.219.543.37 1.003.452.461.082 1.055.124 1.784.124.669 0 1.219-.044 1.65-.13.431-.086.75-.24.958-.462.209-.222.313-.538.313-.947v-.548h-1.382v.72c0 .352-.104.596-.313.731-.208.138-.624.205-1.248.205-.684 0-1.137-.07-1.36-.21-.223-.139-.334-.382-.334-.725v-2.861c0-.308.111-.533.334-.673.223-.14.661-.21 1.316-.21.653 0 1.084.07 1.292.21.209.14.313.365.313.673v.72h1.382v-.699c0-.502-.234-.846-.702-1.032ZM113.862 42.611c0 .38-.126.642-.378.786-.254.143-.677.214-1.272.214-.579 0-1-.073-1.259-.22-.26-.147-.391-.407-.391-.78v-2.656c0-.366.131-.622.391-.77.259-.147.68-.22 1.259-.22.624 0 1.055.077 1.294.231.237.154.356.407.356.759v2.656Zm.68-3.743c-.468-.215-1.245-.323-2.33-.323-1.084 0-1.861.112-2.329.334-.469.222-.703.591-.703 1.107v2.485c0 .403.108.718.323.946.216.23.55.39 1.004.48.453.089 1.022.134 1.705.134.714 0 1.294-.047 1.739-.14.446-.093.773-.253.982-.479.207-.226.312-.538.312-.941v-2.485c0-.53-.234-.903-.703-1.118ZM127.339 38.857c-.333-.207-.962-.312-1.883-.312-.669 0-1.215.094-1.639.28-.289.128-.51.286-.671.47-.079-.203-.24-.369-.488-.491-.35-.172-.956-.259-1.817-.259-.551 0-1.015.062-1.394.183-.379.122-.65.287-.813.495l-.156-.591h-1.16v5.324h1.382v-4.335c.119-.158.309-.294.569-.409.26-.115.643-.172 1.148-.172.55 0 .932.061 1.148.183.215.122.324.33.324.624v4.11h1.381V39.77c.03-.207.208-.381.536-.52.326-.141.736-.211 1.225-.211.521 0 .889.063 1.104.189.216.125.324.36.324.704v4.023h1.382v-4.141c0-.43-.167-.75-.502-.958ZM134.708 42.6c0 .136-.007.264-.022.382a.532.532 0 0 1-.178.323c-.105.097-.269.173-.492.23-.222.058-.542.087-.958.087-.505 0-.873-.04-1.103-.123-.231-.083-.379-.197-.447-.345a1.155 1.155 0 0 1-.1-.478v-2.538c0-.123.008-.252.022-.388a.683.683 0 0 1 .179-.382c.104-.118.267-.213.49-.285.223-.071.543-.108.959-.108.416 0 .736.03.958.087.223.057.387.136.492.236.103.1.163.21.178.329.015.118.022.245.022.381V42.6Zm.379-3.872c-.372-.114-.907-.172-1.605-.172-.684 0-1.175.054-1.472.162-.297.107-.512.236-.647.387l-.044-.473h-1.293v6.571h1.36V43.58c.164.13.412.237.747.323.334.086.784.13 1.349.13.727 0 1.278-.064 1.65-.19.371-.124.624-.302.758-.532.133-.229.2-.49.2-.785v-2.624c0-.265-.075-.498-.223-.7-.149-.2-.408-.358-.78-.473ZM142.601 42.32c0 .381-.153.685-.458.915-.305.23-.791.344-1.46.344-.224 0-.446-.018-.669-.054a1.137 1.137 0 0 1-.557-.237c-.15-.121-.223-.311-.223-.569v-.42c0-.272.137-.486.412-.64.276-.154.665-.302 1.171-.446.357-.093.706-.186 1.047-.28.342-.093.588-.197.737-.312v1.7Zm.345-3.656c-.424-.093-1.059-.14-1.907-.14-.802 0-1.412.06-1.828.177-.416.12-.698.28-.847.485-.148.203-.223.439-.223.704v.517h1.271v-.452c0-.345.104-.604.312-.78.208-.176.647-.264 1.315-.264.268 0 .524.019.769.055.247.035.443.1.592.193a.444.444 0 0 1 .223.397v.227a.54.54 0 0 1-.245.462c-.165.115-.406.219-.725.312-.32.093-.732.2-1.238.323-.788.172-1.408.367-1.861.586-.454.219-.68.507-.68.866v.516c0 .358.123.622.368.79.245.169.542.276.891.323.349.046.695.07 1.037.07.535 0 1.033-.063 1.493-.189.462-.124.781-.31.96-.554l.022.668h1.36v-4.28a.94.94 0 0 0-.212-.614c-.141-.172-.424-.305-.847-.398ZM151.373 38.734c-.364-.133-.94-.2-1.728-.2-.461 0-.907.058-1.338.173-.43.115-.706.28-.825.495l-.178-.57h-1.137v5.324h1.383V39.61a.911.911 0 0 1 .234-.252c.111-.09.282-.168.513-.237.23-.068.531-.102.903-.102.43 0 .757.028.98.086.223.057.383.134.48.23a.555.555 0 0 1 .167.33c.015.12.022.247.022.376v3.915h1.383v-4.013c0-.25-.052-.482-.157-.693-.104-.211-.338-.384-.702-.516ZM156.924 43.252l-2.017-4.62h-1.427l2.541 5.238c.06.121.034.23-.078.322-.111.093-.211.176-.301.247a1.198 1.198 0 0 1-.679.301 5.84 5.84 0 0 1-1.294.033 1.834 1.834 0 0 1-.301-.043v.398c.135.014.324.032.569.054.246.021.524.031.836.031.832 0 1.486-.12 1.962-.36s.825-.607 1.048-1.102l2.408-5.12h-1.316l-1.951 4.62ZM18.668 16.406c-.635.513-1.626.773-2.943.773H3.508v-5.683h12.217c1.317 0 2.307.26 2.943.772.531.431.779 1.017.779 1.845 0 .979-.32 1.922-.78 2.293Zm4.634-2.293c0-2.208-.768-3.967-2.283-5.227-1.406-1.17-3.32-1.762-5.688-1.762H0v19.057h3.508v-4.604H15.33c2.367 0 4.282-.594 5.688-1.763 1.408-1.17 2.283-3.355 2.283-5.701ZM48.476 15.638v1.726l-18.065.09v-1.72c0-1.006.515-1.927 1.62-2.9.657-.578 4.116-1.251 7.589-1.251 3.56 0 6.446.601 7.08 1.158.878.773 1.776 1.722 1.776 2.897Zm-18.065 6.118 18.065-.09v4.514l3.84.003V15.851c0-2.749-.83-4.8-2.537-6.27-1.482-1.276-3.733-2.457-10.117-2.457-5.008 0-8.642.85-10.508 2.457-1.731 1.492-2.61 3.633-2.61 6.364v10.33h3.867v-4.519ZM174.16 15.638v1.726l-18.065.09v-1.72c0-1.006.515-1.927 1.619-2.9.657-.578 4.117-1.251 7.59-1.251 3.559 0 6.446.601 7.079 1.158.879.773 1.777 1.722 1.777 2.897Zm1.303-6.057c-1.482-1.276-3.733-2.457-10.117-2.457-5.008 0-8.642.85-10.508 2.457-1.731 1.492-2.609 3.633-2.609 6.364v10.33h3.866v-4.519l18.065-.09v4.514l3.84.003V15.851c0-2.749-.83-4.8-2.537-6.27ZM81.237 21.854l-22.024.057V7.242l-3.763-.084v19.07h25.787v-4.374ZM145.173 26.204h3.788V7.124h-3.635l-14.348 7.515-14.439-7.515h-3.644v19.08h3.799V11.97l14.286 7.409 14.193-7.403v14.228ZM106.638 3.891a10.185 10.185 0 0 0-3.652-2.88C101.552.338 98.314 0 96.515 0c-1.733 0-4.9.334-6.368 1.002A9.76 9.76 0 0 0 86.46 3.89c-1.035 1.322-1.822 2.912-2.362 4.767-.54 1.856-.81 3.953-.81 6.29 0 2.376.273 4.488.82 6.337.544 1.85 1.323 3.41 2.335 4.681.312.391.65.743 1.002 1.077a56.435 56.435 0 0 1 3.68-8.237c1.392-2.584 2.388-5.087 1.578-6.968-.546-1.268-2.073-1.785-3.75-1.723.02-.693.547-1.236 1.244-1.537.577-1.762 1.762-2.657 3.411-2.887 4.134-.058 7.125 3.278 9.282 9.088 1.396 1.421 2.145 2.946 2.343 4.557.544 3.502-.688 6.67-2.624 9.703.129-.047.252-.094.36-.145 1.411-.654 2.634-1.63 3.669-2.928 1.001-1.245 1.78-2.802 2.337-4.67.556-1.869.835-3.985.835-6.348s-.273-4.476-.819-6.338c-.545-1.862-1.33-3.435-2.353-4.719Z" fill="#fff"/></svg>