<?xml version="1.0" standalone="no"?>
<!DOCTYPE svg PUBLIC "-//W3C//DTD SVG 20010904//EN"
 "http://www.w3.org/TR/2001/REC-SVG-20010904/DTD/svg10.dtd">
<svg version="1.0" xmlns="http://www.w3.org/2000/svg"
 width="1280.000000pt" height="996.000000pt" viewBox="0 0 1280.000000 996.000000"
 preserveAspectRatio="xMidYMid meet">
<metadata>
Created by potrace 1.15, written by Peter Selinger 2001-2017
</metadata>
<g transform="translate(0.000000,996.000000) scale(0.100000,-0.100000)"
fill="#000000" stroke="none">
<path d="M4410 9350 l0 -610 85 0 85 0 0 -129 c0 -138 -1 -141 -55 -141 -12 0
-63 -11 -111 -25 -374 -106 -650 -420 -709 -805 l-5 -35 -372 0 c-446 -1 -691
-20 -1058 -80 -713 -119 -1300 -370 -1682 -721 -406 -373 -608 -857 -584
-1401 25 -573 280 -1189 759 -1833 416 -560 969 -1096 1670 -1621 l212 -158
58 3 c35 2 65 9 74 18 14 15 46 106 133 381 48 152 39 141 110 125 9 -2 21 21
36 67 22 69 64 199 145 453 22 70 58 181 79 247 21 66 57 179 80 250 23 72 59
184 80 250 21 66 57 179 80 250 23 72 59 185 81 253 21 67 57 177 78 245 22
67 188 588 370 1157 183 569 334 1041 337 1049 3 11 15 5 42 -22 20 -19 62
-48 92 -64 50 -25 65 -28 160 -28 93 0 112 3 162 27 32 15 79 47 105 72 27 24
60 47 74 51 25 6 29 -2 211 -407 102 -227 530 -1178 951 -2113 l765 -1700 -23
-179 c-29 -218 -39 -386 -27 -405 20 -28 41 -1 66 81 25 82 88 370 101 458 4
25 8 52 11 61 2 9 52 37 109 64 58 26 105 51 105 55 0 5 -32 77 -71 161 l-70
154 20 185 c31 271 27 381 -13 340 -19 -20 -40 -86 -68 -213 -13 -59 -25 -107
-28 -107 -7 1 -124 270 -119 273 2 2 23 15 47 30 85 55 128 146 120 259 -9
153 -139 278 -287 278 -62 0 -105 -15 -163 -57 l-46 -33 -35 57 c-52 85 -148
282 -213 434 -71 167 -80 231 -40 283 14 19 26 38 26 42 0 5 -585 1314 -595
1331 -1 2 -19 -6 -40 -17 -83 -42 -122 -21 -215 112 -71 102 -218 414 -255
541 -26 89 -24 91 77 91 47 1 89 4 92 7 4 3 -7 36 -24 74 l-30 67 49 53 c68
76 139 187 177 278 17 43 33 80 36 82 2 2 92 -18 200 -45 1701 -428 3418
-1264 4688 -2284 1080 -867 1790 -1817 2000 -2678 117 -481 76 -921 -121
-1297 -153 -292 -377 -528 -681 -720 -38 -24 -68 -45 -68 -47 0 -2 41 -31 91
-64 l90 -61 82 52 c231 148 470 375 599 569 294 442 370 953 227 1529 -226
913 -988 1914 -2160 2837 -428 338 -958 688 -1494 989 -996 559 -2128 1013
-3223 1293 -106 28 -195 52 -197 54 -3 2 0 42 5 89 28 235 -55 506 -214 705
-154 192 -366 313 -628 358 l-38 7 0 129 0 130 85 0 85 0 0 610 0 610 -270 0
-270 0 0 -610z m170 -1471 l0 -361 -27 6 c-32 6 -344 41 -448 50 -38 4 -92 9
-118 12 l-49 6 7 44 c20 137 94 274 210 389 101 101 189 154 315 192 123 36
110 76 110 -338z m300 340 c215 -59 407 -229 493 -435 39 -92 60 -212 55 -315
-2 -49 -6 -90 -9 -93 -2 -2 -54 6 -116 20 -102 22 -497 94 -515 94 -4 0 -8
169 -8 375 0 296 3 375 13 375 7 0 46 -9 87 -21z m-1243 -755 l60 -7 7 -72
c19 -214 150 -470 312 -612 l55 -48 -20 -57 -20 -57 35 -7 c19 -3 54 -1 79 5
68 17 75 15 75 -21 0 -113 -135 -515 -218 -651 -55 -89 -92 -104 -187 -74 -17
6 -22 0 -33 -36 -7 -23 -45 -141 -83 -262 -39 -121 -89 -276 -111 -345 -21
-69 -43 -136 -48 -150 -5 -14 -41 -126 -80 -250 -39 -124 -75 -235 -80 -248
-16 -37 -12 -52 21 -85 31 -30 31 -32 26 -106 -7 -120 -194 -661 -227 -661 -5
0 -11 4 -14 9 -15 24 -99 51 -158 51 -238 0 -366 -293 -208 -473 21 -24 58
-52 82 -62 24 -10 44 -19 45 -20 2 -1 -10 -41 -26 -91 -16 -49 -66 -204 -111
-344 -44 -140 -90 -281 -100 -313 -14 -43 -16 -59 -7 -62 84 -26 102 -34 99
-46 -7 -29 -135 -424 -138 -428 -4 -5 -160 111 -340 255 -1086 862 -1813 1824
-2027 2679 -103 412 -97 763 19 1104 288 843 1241 1373 2644 1471 262 18 574
25 677 14z m545 -31 c108 -9 195 -20 192 -24 -2 -4 -22 -10 -43 -14 -22 -4
-44 -12 -49 -18 -4 -7 -34 -95 -67 -197 -32 -102 -60 -189 -62 -193 -15 -27
-124 128 -167 236 -21 53 -56 192 -56 223 0 7 51 5 252 -13z m1086 -157 c62
-13 115 -25 117 -28 7 -7 -73 -161 -103 -197 l-28 -33 -58 128 c-32 71 -60
135 -63 142 -7 16 2 15 135 -12z"/>
</g>
</svg>
