<svg width="178" height="46" viewBox="0 0 178 46" fill="none" xmlns="http://www.w3.org/2000/svg">
<path d="M18.7656 38.8149C18.2978 38.628 17.5356 38.5346 16.4804 38.5346C15.3952 38.5346 14.619 38.6307 14.1505 38.8202C13.6826 39.0098 13.4484 39.3668 13.4484 39.8901V42.5144C13.4484 42.9375 13.5525 43.2585 13.7607 43.4768C13.9689 43.6957 14.3026 43.8465 14.7638 43.9286C15.2243 44.0114 15.819 44.0527 16.5478 44.0527C17.2159 44.0527 17.7658 44.0094 18.197 43.9233C18.6281 43.8372 18.9472 43.6837 19.1554 43.4607C19.3636 43.2392 19.4677 42.9228 19.4677 42.5144V41.9664H18.0855V42.6865C18.0855 43.0376 17.9814 43.2819 17.7739 43.4174C17.565 43.5548 17.1492 43.6223 16.5251 43.6223C15.8417 43.6223 15.3879 43.5528 15.1649 43.4127C14.942 43.2732 14.8306 43.0303 14.8306 42.6865V39.826C14.8306 39.5177 14.942 39.2934 15.1649 39.1533C15.3879 39.0138 15.8263 38.943 16.4804 38.943C17.1345 38.943 17.565 39.0138 17.7739 39.1533C17.9814 39.2934 18.0855 39.5177 18.0855 39.826V40.5462H19.4677V39.8474C19.4677 39.3455 19.2341 39.0011 18.7656 38.8149Z" fill="white"/>
<path d="M25.8662 42.6112C25.8662 42.9909 25.7401 43.2526 25.4871 43.3967C25.2342 43.5402 24.811 43.611 24.2164 43.611C23.6371 43.611 23.2166 43.5382 22.957 43.3907C22.6967 43.2439 22.5665 42.9843 22.5665 42.6112V39.9549C22.5665 39.5891 22.6967 39.3329 22.957 39.1854C23.2166 39.0385 23.6371 38.9651 24.2164 38.9651C24.8404 38.9651 25.2715 39.0419 25.5091 39.196C25.7467 39.3502 25.8662 39.6032 25.8662 39.9549V42.6112ZM26.5463 38.8683C26.0778 38.6528 25.3009 38.5453 24.2164 38.5453C23.1312 38.5453 22.355 38.6568 21.8864 38.879C21.4186 39.1013 21.1843 39.4703 21.1843 39.9863V42.471C21.1843 42.8735 21.2918 43.1885 21.5074 43.4174C21.7229 43.6477 22.0573 43.8065 22.5111 43.8966C22.9636 43.986 23.5323 44.0308 24.2164 44.0308C24.9298 44.0308 25.5091 43.984 25.9556 43.8913C26.4015 43.7978 26.7278 43.6383 26.9367 43.4121C27.1443 43.1858 27.2484 42.8735 27.2484 42.471V39.9863C27.2484 39.4557 27.0142 39.0832 26.5463 38.8683Z" fill="white"/>
<path d="M34.5279 38.7337C34.1635 38.6009 33.5876 38.5342 32.8 38.5342C32.3388 38.5342 31.893 38.5923 31.4619 38.7071C31.0314 38.8218 30.7557 38.9867 30.6369 39.2016L30.4587 38.6316H29.3221V43.9556H30.7044V39.6101C30.7484 39.5313 30.8272 39.4465 30.9386 39.3578C31.0501 39.2677 31.2203 39.1896 31.4512 39.1208C31.6814 39.0528 31.9824 39.0187 32.3542 39.0187C32.7847 39.0187 33.1117 39.0474 33.3346 39.1048C33.5575 39.1622 33.7177 39.239 33.8145 39.3358C33.9106 39.4325 33.9667 39.542 33.982 39.6641C33.9967 39.7856 34.004 39.9117 34.004 40.0405V43.9556H35.3862V39.9431C35.3862 39.6928 35.3342 39.4612 35.2301 39.2497C35.1259 39.0388 34.8917 38.8659 34.5279 38.7337Z" fill="white"/>
<path d="M42.0634 38.6855C41.6402 38.592 41.0716 38.5453 40.3581 38.5453C39.2729 38.5453 38.5041 38.6508 38.0502 38.863C37.5971 39.0739 37.3701 39.3696 37.3701 39.75V40.0724C37.3701 40.3306 37.4783 40.5422 37.6938 40.7071C37.9087 40.8719 38.2024 41.0081 38.5742 41.1162C38.9459 41.2236 39.377 41.3237 39.8669 41.4172C40.3875 41.5173 40.7926 41.6181 41.0823 41.7182C41.3726 41.8183 41.5688 41.9278 41.6736 42.0459C41.7771 42.1647 41.8298 42.3062 41.8298 42.471V42.772C41.8298 43.081 41.6996 43.2993 41.4393 43.4281C41.1791 43.5576 40.7739 43.6216 40.224 43.6216C39.6 43.6216 39.1688 43.5576 38.9312 43.4281C38.693 43.2993 38.5742 43.0664 38.5742 42.7293V42.1166H37.1699V42.5785C37.1699 42.9295 37.2587 43.2112 37.4369 43.4234C37.6158 43.6343 37.9281 43.7885 38.3739 43.8853C38.8198 43.9827 39.4438 44.0308 40.2467 44.0308C41.0195 44.0308 41.6289 43.9774 42.0747 43.8699C42.5206 43.7611 42.8362 43.6056 43.0224 43.4014C43.208 43.1972 43.3008 42.9516 43.3008 42.6646V42.4176C43.3008 42.1306 43.204 41.9044 43.0111 41.7395C42.8175 41.5747 42.5539 41.4439 42.2195 41.3471C41.8852 41.2503 41.5021 41.1589 41.0716 41.0728C40.5957 40.98 40.1866 40.8899 39.8456 40.8038C39.5032 40.7177 39.2396 40.6103 39.0534 40.4808C38.8678 40.352 38.775 40.1871 38.775 39.9863V39.6966C38.775 39.481 38.8825 39.3022 39.0981 39.1587C39.3136 39.0152 39.7334 38.9431 40.3581 38.9431C40.9074 38.9431 41.3092 39.0092 41.5621 39.1426C41.8144 39.2748 41.9412 39.5204 41.9412 39.8788V40.3954H43.3008V39.9435C43.3008 39.6138 43.2006 39.3449 42.9998 39.1366C42.7995 38.9291 42.4872 38.7789 42.0634 38.6855Z" fill="white"/>
<path d="M46.8903 37.6312H45.8418L45.5969 38.6317L44.5264 38.7071V39.0515H45.5075V42.9125C45.5075 43.1134 45.5595 43.2802 45.6636 43.4124C45.7678 43.5452 45.9166 43.6526 46.1101 43.7354C46.303 43.8181 46.5333 43.8769 46.8009 43.9122C47.0685 43.949 47.3655 43.9663 47.6926 43.9663C48.0343 43.9663 48.354 43.9563 48.6516 43.9336C48.948 43.9122 49.1562 43.9022 49.2757 43.9022V43.4718C49.1715 43.4718 49 43.4771 48.7631 43.4878C48.5248 43.4985 48.3019 43.5045 48.0943 43.5045C47.5884 43.5045 47.2614 43.4357 47.1132 43.2996C46.9637 43.1634 46.8903 42.9952 46.8903 42.7937V39.0515H49.2757V38.6317H46.8903V37.6312Z" fill="white"/>
<path d="M53.935 38.6101C53.5632 38.6315 53.1915 38.6855 52.8204 38.7716C52.4486 38.857 52.181 39.0012 52.0175 39.2021L51.8613 38.6315H50.702V43.9561H52.0842V39.9976C52.0842 39.7467 52.2551 39.5471 52.5975 39.401C52.9385 39.2535 53.363 39.1661 53.8676 39.1367C54.0164 39.1087 54.1766 39.0946 54.3474 39.0946C54.5183 39.0946 54.6778 39.0973 54.8266 39.1046C54.9755 39.112 55.0789 39.1193 55.139 39.126V38.5994C54.7525 38.564 54.3514 38.5674 53.935 38.6101Z" fill="white"/>
<path d="M60.8685 42.9656C60.8392 43.0371 60.7644 43.1185 60.6456 43.2079C60.5268 43.2973 60.356 43.3741 60.1324 43.4388C59.9095 43.5042 59.6051 43.5356 59.2187 43.5356C58.6687 43.5356 58.2743 43.4876 58.0374 43.3908C57.7991 43.294 57.6616 43.1685 57.6249 43.0144C57.5875 42.8602 57.5689 42.704 57.5689 42.5465V38.6315H56.1866V42.6326C56.1866 42.8762 56.2387 43.1058 56.3428 43.3207C56.4469 43.5356 56.6845 43.7098 57.0563 43.8419C57.428 43.9754 58 44.0415 58.7729 44.0415C59.3822 44.0415 59.8687 43.9734 60.2332 43.8373C60.5969 43.7011 60.8392 43.5463 60.958 43.3741L61.0694 43.9554H62.2507V38.6315H60.8685V42.9656Z" fill="white"/>
<path d="M69.6637 38.8149C69.1958 38.628 68.4337 38.5346 67.3785 38.5346C66.2933 38.5346 65.5171 38.6307 65.0486 38.8202C64.5807 39.0098 64.3464 39.3668 64.3464 39.8901V42.5144C64.3464 42.9375 64.4506 43.2585 64.6588 43.4768C64.867 43.6957 65.2007 43.8465 65.6619 43.9286C66.1224 44.0114 66.7171 44.0527 67.4459 44.0527C68.114 44.0527 68.6639 44.0094 69.0951 43.9233C69.5262 43.8372 69.8452 43.6837 70.0535 43.4607C70.2617 43.2392 70.3658 42.9228 70.3658 42.5144V41.9664H68.9836V42.6865C68.9836 43.0376 68.8795 43.2819 68.6719 43.4174C68.463 43.5548 68.0472 43.6223 67.4232 43.6223C66.7398 43.6223 66.2859 43.5528 66.063 43.4127C65.8401 43.2732 65.7286 43.0303 65.7286 42.6865V39.826C65.7286 39.5177 65.8401 39.2934 66.063 39.1533C66.2859 39.0138 66.7244 38.943 67.3785 38.943C68.0325 38.943 68.463 39.0138 68.6719 39.1533C68.8795 39.2934 68.9836 39.5177 68.9836 39.826V40.5462H70.3658V39.8474C70.3658 39.3455 70.1322 39.0011 69.6637 38.8149Z" fill="white"/>
<path d="M73.9331 37.6312H72.8852L72.6403 38.6317L71.5691 38.7071V39.0515H72.5502V42.9125C72.5502 43.1134 72.6029 43.2802 72.707 43.4124C72.8105 43.5452 72.9593 43.6526 73.1529 43.7354C73.3457 43.8181 73.576 43.8769 73.8436 43.9122C74.1113 43.949 74.4083 43.9663 74.736 43.9663C75.077 43.9663 75.3967 43.9563 75.6944 43.9336C75.9914 43.9122 76.1996 43.9022 76.3184 43.9022V43.4718C76.2143 43.4718 76.0434 43.4771 75.8058 43.4878C75.5682 43.4985 75.3446 43.5045 75.1371 43.5045C74.6312 43.5045 74.3041 43.4357 74.156 43.2996C74.0071 43.1634 73.9331 42.9952 73.9331 42.7937V39.0515H76.3184V38.6317H73.9331V37.6312Z" fill="white"/>
<path d="M77.745 43.9561H79.1052V38.6315H77.745V43.9561Z" fill="white"/>
<path d="M79.0045 37.3351C78.849 37.267 78.6595 37.2336 78.4359 37.2336C78.213 37.2336 78.0234 37.267 77.8673 37.3351C77.7118 37.4038 77.6337 37.4912 77.6337 37.5993C77.6337 37.6995 77.7118 37.7876 77.8673 37.8623C78.0234 37.9377 78.213 37.9751 78.4359 37.9751C78.6595 37.9751 78.849 37.9377 79.0045 37.8623C79.1607 37.7876 79.2388 37.6955 79.2388 37.588C79.2388 37.4879 79.1607 37.4038 79.0045 37.3351Z" fill="white"/>
<path d="M85.8823 42.6112C85.8823 42.9909 85.7569 43.2526 85.5039 43.3967C85.251 43.5402 84.8271 43.611 84.2325 43.611C83.6532 43.611 83.2327 43.5382 82.9731 43.3907C82.7128 43.2439 82.5826 42.9843 82.5826 42.6112V39.9549C82.5826 39.5891 82.7128 39.3329 82.9731 39.1854C83.2327 39.0385 83.6532 38.9651 84.2325 38.9651C84.8572 38.9651 85.2877 39.0419 85.5259 39.196C85.7635 39.3502 85.8823 39.6032 85.8823 39.9549V42.6112ZM86.5631 38.8683C86.0946 38.6528 85.3177 38.5453 84.2325 38.5453C83.1479 38.5453 82.3711 38.6568 81.9032 38.879C81.4347 39.1013 81.2004 39.4703 81.2004 39.9863V42.471C81.2004 42.8735 81.3086 43.1885 81.5241 43.4174C81.739 43.6477 82.0734 43.8065 82.5273 43.8966C82.9804 43.986 83.5491 44.0308 84.2325 44.0308C84.9466 44.0308 85.5259 43.984 85.9718 43.8913C86.4176 43.7978 86.7446 43.6383 86.9528 43.4121C87.1611 43.1858 87.2652 42.8735 87.2652 42.471V39.9863C87.2652 39.4557 87.0309 39.0832 86.5631 38.8683Z" fill="white"/>
<path d="M94.5443 38.7337C94.1799 38.6009 93.6039 38.5342 92.8164 38.5342C92.3552 38.5342 91.9094 38.5923 91.4782 38.7071C91.0477 38.8218 90.7721 38.9867 90.6533 39.2016L90.4751 38.6316H89.3385V43.9556H90.7207V39.6101C90.7648 39.5313 90.8435 39.4465 90.955 39.3578C91.0664 39.2677 91.2366 39.1896 91.4675 39.1208C91.6978 39.0528 91.9988 39.0187 92.3705 39.0187C92.801 39.0187 93.1281 39.0474 93.351 39.1048C93.5739 39.1622 93.7341 39.239 93.8308 39.3358C93.9269 39.4325 93.983 39.542 93.9984 39.6641C94.013 39.7856 94.0204 39.9117 94.0204 40.0405V43.9556H95.4026V39.9431C95.4026 39.6928 95.3505 39.4612 95.2464 39.2497C95.1423 39.0388 94.908 38.8659 94.5443 38.7337Z" fill="white"/>
<path d="M106.762 38.8149C106.293 38.628 105.532 38.5346 104.477 38.5346C103.391 38.5346 102.615 38.6307 102.147 38.8202C101.679 39.0098 101.444 39.3668 101.444 39.8901V42.5144C101.444 42.9375 101.548 43.2585 101.756 43.4768C101.964 43.6957 102.299 43.8465 102.759 43.9286C103.22 44.0114 103.814 44.0527 104.543 44.0527C105.212 44.0527 105.762 44.0094 106.193 43.9233C106.624 43.8372 106.943 43.6837 107.151 43.4607C107.36 43.2392 107.464 42.9228 107.464 42.5144V41.9664H106.082V42.6865C106.082 43.0376 105.978 43.2819 105.769 43.4174C105.561 43.5548 105.145 43.6223 104.521 43.6223C103.837 43.6223 103.384 43.5528 103.161 43.4127C102.938 43.2732 102.827 43.0303 102.827 42.6865V39.826C102.827 39.5177 102.938 39.2934 103.161 39.1533C103.384 39.0138 103.822 38.943 104.477 38.943C105.13 38.943 105.561 39.0138 105.769 39.1533C105.978 39.2934 106.082 39.5177 106.082 39.826V40.5462H107.464V39.8474C107.464 39.3455 107.23 39.0011 106.762 38.8149Z" fill="white"/>
<path d="M113.862 42.6112C113.862 42.9909 113.736 43.2526 113.484 43.3967C113.23 43.5402 112.807 43.611 112.212 43.611C111.633 43.611 111.212 43.5382 110.953 43.3907C110.693 43.2439 110.562 42.9843 110.562 42.6112V39.9549C110.562 39.5891 110.693 39.3329 110.953 39.1854C111.212 39.0385 111.633 38.9651 112.212 38.9651C112.836 38.9651 113.267 39.0419 113.506 39.196C113.743 39.3502 113.862 39.6032 113.862 39.9549V42.6112ZM114.542 38.8683C114.074 38.6528 113.297 38.5453 112.212 38.5453C111.128 38.5453 110.351 38.6568 109.883 38.879C109.414 39.1013 109.18 39.4703 109.18 39.9863V42.471C109.18 42.8735 109.288 43.1885 109.503 43.4174C109.719 43.6477 110.053 43.8065 110.507 43.8966C110.96 43.986 111.529 44.0308 112.212 44.0308C112.926 44.0308 113.506 43.984 113.951 43.8913C114.397 43.7978 114.724 43.6383 114.933 43.4121C115.14 43.1858 115.245 42.8735 115.245 42.471V39.9863C115.245 39.4557 115.011 39.0832 114.542 38.8683Z" fill="white"/>
<path d="M127.339 38.857C127.006 38.6495 126.377 38.5454 125.456 38.5454C124.787 38.5454 124.241 38.6388 123.817 38.825C123.528 38.9531 123.307 39.1107 123.146 39.2949C123.067 39.092 122.906 38.9265 122.658 38.8036C122.308 38.6315 121.702 38.5454 120.841 38.5454C120.29 38.5454 119.826 38.6068 119.447 38.7282C119.068 38.8504 118.797 39.0152 118.634 39.2234L118.478 38.6315H117.318V43.9561H118.7V39.6212C118.819 39.463 119.009 39.3269 119.269 39.2121C119.529 39.0973 119.912 39.0399 120.417 39.0399C120.967 39.0399 121.349 39.1013 121.565 39.2234C121.78 39.3449 121.889 39.5531 121.889 39.8468V43.9561H123.27V39.7714C123.3 39.5638 123.478 39.3896 123.806 39.2501C124.132 39.11 124.542 39.0399 125.031 39.0399C125.552 39.0399 125.92 39.1033 126.135 39.2288C126.351 39.3536 126.459 39.5892 126.459 39.9329V43.9561H127.841V39.8148C127.841 39.3843 127.674 39.0653 127.339 38.857Z" fill="white"/>
<path d="M134.708 42.6002C134.708 42.7364 134.701 42.8645 134.686 42.982C134.671 43.1008 134.611 43.2082 134.508 43.305C134.403 43.4018 134.239 43.4785 134.016 43.5359C133.794 43.5933 133.474 43.622 133.058 43.622C132.553 43.622 132.185 43.5813 131.955 43.4986C131.724 43.4165 131.576 43.3017 131.508 43.1542C131.442 43.0073 131.408 42.8478 131.408 42.6756V40.1375C131.408 40.0153 131.416 39.8865 131.43 39.7497C131.445 39.6136 131.504 39.4868 131.609 39.368C131.713 39.2498 131.876 39.1551 132.099 39.083C132.322 39.0116 132.642 38.9755 133.058 38.9755C133.474 38.9755 133.794 39.0042 134.016 39.0616C134.239 39.119 134.403 39.1978 134.508 39.2985C134.611 39.3987 134.671 39.5081 134.686 39.6269C134.701 39.745 134.708 39.8719 134.708 40.008V42.6002ZM135.087 38.7279C134.715 38.6138 134.18 38.5557 133.482 38.5557C132.798 38.5557 132.307 38.6098 132.01 38.7179C131.713 38.8254 131.498 38.9542 131.363 39.105L131.319 38.6318H130.026V45.2031H131.386V43.5793C131.55 43.7081 131.798 43.8156 132.133 43.9017C132.467 43.9878 132.917 44.0312 133.482 44.0312C134.209 44.0312 134.76 43.9684 135.132 43.8423C135.503 43.7175 135.756 43.5399 135.89 43.3097C136.023 43.0814 136.09 42.8191 136.09 42.5255V39.9005C136.09 39.6356 136.015 39.4027 135.867 39.2018C135.718 39.0009 135.459 38.8434 135.087 38.7279Z" fill="white"/>
<path d="M142.601 42.3207C142.601 42.7011 142.448 43.0054 142.143 43.235C141.838 43.4646 141.352 43.5794 140.683 43.5794C140.459 43.5794 140.237 43.5614 140.014 43.5254C139.791 43.49 139.605 43.4106 139.457 43.2884C139.307 43.167 139.234 42.9767 139.234 42.7191V42.2993C139.234 42.027 139.371 41.8134 139.646 41.6593C139.922 41.5051 140.311 41.3569 140.817 41.2134C141.174 41.12 141.523 41.0272 141.864 40.9331C142.206 40.8404 142.452 40.7362 142.601 40.6215V42.3207ZM142.946 38.6639C142.522 38.5712 141.887 38.5244 141.039 38.5244C140.237 38.5244 139.627 38.5832 139.211 38.7013C138.795 38.8201 138.513 38.981 138.364 39.1859C138.216 39.3894 138.141 39.625 138.141 39.89V40.4065H139.412V39.9547C139.412 39.6103 139.516 39.3507 139.724 39.1745C139.932 38.999 140.371 38.9115 141.039 38.9115C141.307 38.9115 141.563 38.9296 141.808 38.9656C142.055 39.001 142.251 39.0657 142.4 39.1592C142.548 39.2519 142.623 39.3847 142.623 39.5563V39.7825C142.623 39.9761 142.54 40.1302 142.378 40.245C142.213 40.3598 141.972 40.4639 141.653 40.5567C141.333 40.6501 140.921 40.7576 140.415 40.8797C139.627 41.0519 139.007 41.2475 138.554 41.4657C138.1 41.6846 137.874 41.973 137.874 42.332V42.8479C137.874 43.2063 137.997 43.47 138.242 43.6388C138.487 43.807 138.784 43.9145 139.133 43.9612C139.482 44.0072 139.828 44.0312 140.17 44.0312C140.705 44.0312 141.203 43.9685 141.663 43.8424C142.125 43.7176 142.444 43.532 142.623 43.2884L142.645 43.9558H144.005V39.6751C144.005 39.4388 143.934 39.2339 143.793 39.0617C143.652 38.8895 143.369 38.7574 142.946 38.6639Z" fill="white"/>
<path d="M151.373 38.7337C151.009 38.6009 150.433 38.5342 149.645 38.5342C149.184 38.5342 148.738 38.5923 148.307 38.7071C147.877 38.8218 147.601 38.9867 147.482 39.2016L147.304 38.6316H146.167V43.9556H147.55V39.6101C147.594 39.5313 147.672 39.4465 147.784 39.3578C147.895 39.2677 148.066 39.1896 148.297 39.1208C148.527 39.0528 148.828 39.0187 149.2 39.0187C149.63 39.0187 149.957 39.0474 150.18 39.1048C150.403 39.1622 150.563 39.239 150.66 39.3358C150.756 39.4325 150.812 39.542 150.827 39.6641C150.842 39.7856 150.849 39.9117 150.849 40.0405V43.9556H152.232V39.9431C152.232 39.6928 152.18 39.4612 152.075 39.2497C151.971 39.0388 151.737 38.8659 151.373 38.7337Z" fill="white"/>
<path d="M156.924 43.2519L154.907 38.6314H153.48L156.021 43.8699C156.081 43.9914 156.055 44.0995 155.943 44.1922C155.832 44.285 155.732 44.3678 155.642 44.4392C155.464 44.604 155.237 44.7048 154.963 44.7402C154.687 44.7762 154.438 44.7949 154.215 44.7949C154.007 44.7949 153.826 44.7876 153.669 44.7729C153.513 44.7589 153.413 44.7442 153.368 44.7302V45.128C153.503 45.142 153.692 45.16 153.937 45.182C154.183 45.2034 154.461 45.2134 154.773 45.2134C155.605 45.2134 156.259 45.0939 156.735 44.853C157.211 44.6134 157.56 44.2456 157.783 43.7511L160.191 38.6314H158.875L156.924 43.2519Z" fill="white"/>
<path d="M18.6675 16.4058C18.0328 16.919 17.0423 17.1793 15.7249 17.1793H3.50791V11.4963H15.7249C17.0423 11.4963 18.0321 11.7559 18.6675 12.2685C19.1994 12.699 19.447 13.285 19.447 14.1126C19.447 15.0916 19.1266 16.0347 18.6675 16.4058ZM23.302 14.1126C23.302 11.9048 22.5338 10.1461 21.0188 8.88606C19.6125 7.71676 17.6984 7.1241 15.3311 7.1241H0V26.1807H3.50791V21.5769H15.3311C17.6984 21.5769 19.6125 20.9835 21.0188 19.8142C22.427 18.6443 23.302 16.4592 23.302 14.1126Z" fill="white"/>
<path d="M48.4764 15.638V17.3639L30.411 17.4534V15.7341C30.411 14.7283 30.9256 13.8073 32.0301 12.8349C32.6875 12.2563 36.1467 11.5828 39.6199 11.5828C43.1792 11.5828 46.0664 12.1842 46.6991 12.7408C47.5781 13.5143 48.4764 14.4634 48.4764 15.638ZM30.411 21.7562L48.4764 21.6661V26.1798L52.3161 26.1831V15.8509C52.3161 13.1025 51.4858 11.0516 49.7786 9.58128C48.2969 8.30519 46.0464 7.12387 39.662 7.12387C34.6544 7.12387 31.0203 7.97415 29.1543 9.58128C27.423 11.0729 26.5447 13.214 26.5447 15.945V26.2759H30.411V21.7562Z" fill="white"/>
<path d="M174.16 15.638V17.3639L156.095 17.4534V15.7341C156.095 14.7283 156.61 13.8073 157.714 12.8349C158.371 12.2563 161.831 11.5828 165.304 11.5828C168.863 11.5828 171.75 12.1842 172.383 12.7408C173.262 13.5143 174.16 14.4634 174.16 15.638ZM175.463 9.58128C173.981 8.30519 171.73 7.12387 165.346 7.12387C160.338 7.12387 156.704 7.97415 154.838 9.58128C153.107 11.0729 152.229 13.214 152.229 15.945V26.2759H156.095V21.7562L174.16 21.6661V26.1798L178 26.1831V15.8509C178 13.1025 177.17 11.0516 175.463 9.58128Z" fill="white"/>
<path d="M81.2372 21.8543L59.2134 21.911V7.24203L55.4498 7.15793V26.2285H81.2372V21.8543Z" fill="white"/>
<path d="M145.173 26.2036H148.961V7.12369H145.326L130.978 14.6387L116.539 7.12369H112.895V26.2036H116.694V11.9704L130.98 19.3787L145.173 11.9758V26.2036Z" fill="white"/>
<path d="M106.638 3.89104C105.637 2.64565 104.42 1.68525 102.986 1.01183C101.552 0.337082 98.3142 3.8147e-05 96.5149 3.8147e-05C94.7823 3.8147e-05 91.6141 0.333746 90.1465 1.00182C88.6788 1.66923 87.4501 2.63231 86.4604 3.89104C85.4252 5.21318 84.6383 6.80295 84.0984 8.65835C83.5585 10.5144 83.2888 12.6108 83.2888 14.948C83.2888 17.324 83.5611 19.4364 84.1071 21.2851C84.6523 23.1345 85.4312 24.6949 86.443 25.9663C86.7547 26.3574 87.0931 26.7091 87.4455 27.0428C88.5293 23.9774 89.8094 21.2137 91.1256 18.8063C92.5171 16.2221 93.5135 13.7187 92.7033 11.8379C92.1574 10.5705 90.6297 10.0526 88.9531 10.1153C88.9738 9.42187 89.4997 8.8786 90.1972 8.57826C90.7738 6.81563 91.9591 5.9213 93.6083 5.69105C97.7423 5.63298 100.733 8.9687 102.89 14.7785C104.286 16.2001 105.035 17.7251 105.233 19.3363C105.777 22.8382 104.545 26.0057 102.609 29.0391C102.738 28.9923 102.861 28.945 102.969 28.8942C104.38 28.2395 105.603 27.2638 106.638 25.9663C107.639 24.7209 108.418 23.1638 108.975 21.2951C109.531 19.427 109.81 17.3107 109.81 14.948C109.81 12.5847 109.537 10.4724 108.991 8.6103C108.446 6.74822 107.661 5.17514 106.638 3.89104Z" fill="white"/>
</svg>
