<?xml version="1.0" standalone="no"?>
<!DOCTYPE svg PUBLIC "-//W3C//DTD SVG 20010904//EN"
 "http://www.w3.org/TR/2001/REC-SVG-20010904/DTD/svg10.dtd">
<svg version="1.0" xmlns="http://www.w3.org/2000/svg"
 width="1280.000000pt" height="1280.000000pt" viewBox="0 0 1280.000000 1280.000000"
 preserveAspectRatio="xMidYMid meet">
<metadata>
Created by potrace 1.15, written by Peter Selinger 2001-2017
</metadata>
<g transform="translate(0.000000,1280.000000) scale(0.100000,-0.100000)"
fill="#000000" stroke="none">
<path d="M894 12720 c-371 -84 -714 -390 -840 -751 -31 -88 -54 -203 -54 -267
l0 -47 1013 -1011 c4079 -4071 7591 -7472 9112 -8825 619 -550 792 -685 1170
-909 385 -228 1419 -790 1431 -777 11 10 -416 791 -657 1203 -240 412 -318
529 -494 744 -648 793 -2430 2648 -5554 5783 -673 674 -702 706 -627 661 92
-55 224 -104 282 -104 110 0 138 101 69 255 -72 164 -378 561 -604 784 -307
302 -1072 943 -2136 1789 -258 205 -310 252 -665 601 l-385 380 -82 -82 -83
-81 -37 34 c-21 19 -176 171 -345 338 l-307 302 -63 -1 c-35 0 -99 -9 -144
-19z m1916 -1560 c948 -745 1866 -1512 2195 -1833 l126 -123 -32 -68 c-43 -92
-57 -192 -37 -268 l15 -57 -669 662 c-368 364 -933 923 -1256 1243 -525 520
-586 583 -573 598 8 10 18 13 25 8 6 -5 99 -78 206 -162z"/>
</g>
</svg>
