<svg xmlns="http://www.w3.org/2000/svg" width="178" height="46" fill="none" viewBox="0 0 178 46"><path fill="#fff" d="M18.766 38.815q-.702-.28-2.286-.28-1.627 0-2.33.285-.701.285-.702 1.07v2.624q0 .635.313.963.312.329 1.003.452t1.784.124q1.002 0 1.649-.13.646-.129.958-.462.313-.333.313-.947v-.548h-1.382v.72q0 .528-.312.731-.313.206-1.249.205-1.025 0-1.36-.21-.334-.21-.334-.725v-2.86q0-.464.334-.674t1.315-.21q.98 0 1.294.21.31.21.311.673v.72h1.382v-.699q0-.753-.701-1.032M25.866 42.611q0 .57-.379.786-.38.214-1.27.214-.87 0-1.26-.22t-.39-.78v-2.656q0-.548.39-.77.39-.22 1.26-.22.936 0 1.292.231.357.231.357.759Zm.68-3.743q-.702-.323-2.33-.323-1.627 0-2.33.334-.701.333-.702 1.107v2.485q0 .604.323.946.323.345 1.004.48.68.134 1.705.134 1.07 0 1.74-.14.668-.14.98-.479t.312-.941v-2.485q0-.795-.702-1.118M34.528 38.734q-.546-.2-1.728-.2-.692 0-1.338.173-.646.172-.825.495l-.178-.57h-1.137v5.324h1.382V39.61a.9.9 0 0 1 .234-.252q.167-.136.513-.238.345-.102.903-.102.646 0 .98.086.335.086.48.23a.56.56 0 0 1 .167.328q.024.184.023.378v3.915h1.382v-4.012q0-.377-.156-.694t-.702-.516"/><path fill="#fff" d="M42.063 38.686q-.634-.14-1.705-.14-1.627 0-2.308.317-.68.316-.68.887v.322q0 .388.324.635.322.247.88.41.558.16 1.293.3.78.15 1.215.301.435.15.592.328.155.178.156.425v.301q0 .463-.39.656-.39.195-1.216.194-.936 0-1.293-.194t-.357-.699v-.613H37.17v.462q0 .527.267.845.268.317.937.462.669.147 1.873.146 1.16 0 1.828-.161.668-.163.947-.469.279-.307.279-.736v-.247q0-.431-.29-.678t-.792-.393a14 14 0 0 0-1.148-.274 23 23 0 0 1-1.226-.269q-.512-.13-.792-.323-.278-.194-.278-.495v-.29q0-.322.323-.537.323-.216 1.26-.216.825 0 1.204.2.379.198.38.736v.517h1.36v-.452q-.001-.496-.302-.807-.3-.311-.937-.452M46.89 37.631h-1.049l-.244 1-1.07.076v.344h.981v3.861q0 .302.156.5.156.199.446.323.29.125.69.177.403.055.893.054.512 0 .959-.032.444-.032.624-.032v-.43q-.157 0-.513.016-.357.016-.669.017-.76-.001-.98-.205a.66.66 0 0 1-.223-.506v-3.742h2.385v-.42H46.89ZM53.935 38.61a6.6 6.6 0 0 0-1.115.161q-.557.13-.803.431l-.156-.57h-1.16v5.325h1.382v-3.959q.001-.377.514-.597.513-.221 1.27-.264.225-.042.48-.042a10 10 0 0 1 .792.031v-.527a6.2 6.2 0 0 0-1.204.01M60.869 42.966q-.046.107-.223.242-.179.135-.514.23-.334.099-.913.098-.826 0-1.182-.145t-.412-.377a2 2 0 0 1-.056-.468v-3.915h-1.382v4.001q0 .366.156.689t.713.52 1.717.2q.914 0 1.46-.204t.725-.463l.111.581h1.181v-5.324h-1.382ZM69.664 38.815q-.702-.28-2.285-.28-1.629 0-2.33.285-.703.285-.703 1.07v2.624q0 .635.313.963.312.329 1.003.452t1.784.124q1.002 0 1.65-.13.646-.129.957-.462.313-.333.313-.947v-.548h-1.382v.72q0 .528-.312.731-.313.206-1.249.205-1.025 0-1.36-.21-.334-.21-.334-.725v-2.86q0-.464.334-.674t1.316-.21q.98 0 1.293.21.311.21.312.673v.72h1.382v-.699q0-.753-.702-1.032M73.933 37.631h-1.048l-.245 1-1.07.076v.344h.981v3.861q0 .302.156.5.155.199.446.323.29.125.69.177.401.055.893.054.511 0 .958-.032t.624-.032v-.43q-.156 0-.512.016-.357.016-.669.017-.759-.001-.981-.205a.66.66 0 0 1-.223-.506v-3.742h2.385v-.42h-2.385ZM77.745 43.956h1.36v-5.325h-1.36ZM79.005 37.335a1.4 1.4 0 0 0-.569-.101 1.4 1.4 0 0 0-.569.101q-.233.103-.233.264 0 .151.233.263.234.113.569.113t.568-.113q.235-.111.235-.274 0-.15-.235-.253M85.882 42.611q0 .57-.378.786-.38.214-1.272.214-.87 0-1.259-.22-.39-.22-.39-.78v-2.656q0-.548.39-.77.39-.22 1.26-.22.936 0 1.293.231t.356.759Zm.681-3.743q-.702-.323-2.33-.323t-2.33.334q-.703.333-.703 1.107v2.485q0 .604.324.946.323.345 1.003.48.68.134 1.706.134 1.07 0 1.739-.14.67-.14.98-.479.314-.338.313-.941v-2.485q0-.795-.702-1.118M94.544 38.734q-.546-.2-1.728-.2-.69 0-1.338.173-.646.172-.825.495l-.178-.57h-1.137v5.324h1.382V39.61a.9.9 0 0 1 .234-.252q.168-.136.514-.238.344-.102.903-.102.645 0 .98.086t.48.23a.56.56 0 0 1 .168.328q.021.184.021.378v3.915h1.382v-4.012q0-.377-.156-.694t-.702-.516M106.762 38.815q-.703-.28-2.285-.28-1.629 0-2.33.285-.703.285-.703 1.07v2.624q0 .635.312.963.313.329 1.003.452.691.123 1.784.124 1.004 0 1.65-.13.646-.129.958-.462.313-.333.313-.947v-.548h-1.382v.72q0 .528-.313.731-.312.206-1.248.205-1.026 0-1.36-.21t-.334-.725v-2.86q0-.464.334-.674t1.316-.21q.98 0 1.292.21t.313.673v.72h1.382v-.699q0-.753-.702-1.032M113.862 42.611q0 .57-.378.786-.38.214-1.272.214-.87 0-1.259-.22-.39-.22-.391-.78v-2.656q0-.548.391-.77.39-.22 1.259-.22.936 0 1.294.231.356.231.356.759Zm.68-3.743q-.702-.323-2.33-.323-1.627 0-2.329.334-.703.333-.703 1.107v2.485q0 .604.323.946.323.345 1.004.48.68.134 1.705.134 1.071 0 1.739-.14t.982-.479q.311-.338.312-.941v-2.485q0-.795-.703-1.118M127.339 38.857q-.5-.311-1.883-.312-1.003 0-1.639.28c-.289.128-.51.286-.671.47q-.117-.306-.488-.491-.525-.258-1.817-.259-.826 0-1.394.183-.569.183-.813.495l-.156-.591h-1.16v5.325h1.382v-4.335q.179-.238.569-.41t1.148-.172q.825 0 1.148.183t.324.624v4.11h1.381v-4.185q.044-.312.536-.522.49-.21 1.225-.21.781 0 1.104.189.324.188.324.704v4.023h1.382v-4.141q0-.645-.502-.958M134.708 42.6q0 .205-.022.382a.53.53 0 0 1-.178.323q-.157.145-.492.23-.333.087-.958.087-.758 0-1.103-.123-.346-.124-.447-.345a1.16 1.16 0 0 1-.1-.479v-2.538q0-.182.022-.387a.7.7 0 0 1 .179-.382q.156-.177.49-.285.335-.107.959-.108.625 0 .958.087.335.086.492.236.155.15.178.329.022.177.022.381Zm.379-3.872q-.558-.172-1.605-.172-1.026 0-1.472.162-.445.16-.647.387l-.044-.473h-1.293v6.571h1.36V43.58q.245.195.747.323.501.13 1.349.13 1.091 0 1.65-.19.557-.187.758-.532.2-.343.2-.785V39.9q0-.396-.223-.698t-.78-.474M142.601 42.32q0 .57-.458.915-.457.344-1.46.344-.335 0-.669-.054a1.14 1.14 0 0 1-.557-.237q-.224-.182-.223-.569v-.42q0-.408.412-.64.413-.23 1.171-.446.535-.14 1.047-.28.513-.14.737-.312Zm.345-3.656q-.636-.14-1.907-.14-1.203 0-1.828.177-.624.179-.847.485-.222.306-.223.704v.517h1.271v-.452q0-.517.312-.78.313-.264 1.315-.264.402 0 .769.055.37.053.592.193a.44.44 0 0 1 .223.397v.226a.54.54 0 0 1-.245.462q-.247.174-.725.313-.48.139-1.238.323-1.182.258-1.861.586-.68.328-.68.866v.516q0 .538.368.79.368.253.891.323.524.07 1.037.07.803 0 1.493-.189.692-.187.96-.554l.022.668h1.36v-4.28a.94.94 0 0 0-.212-.613q-.212-.26-.847-.4M151.373 38.734q-.546-.2-1.728-.2-.691 0-1.338.173-.646.172-.825.495l-.178-.57h-1.137v5.324h1.383V39.61a.9.9 0 0 1 .234-.252q.166-.136.513-.238.345-.102.903-.102.645 0 .98.086t.48.23a.56.56 0 0 1 .167.328q.022.184.022.378v3.915h1.383v-4.012q0-.377-.157-.694-.156-.317-.702-.516"/><path fill="#fff" d="m156.924 43.252-2.017-4.62h-1.427l2.541 5.238q.09.183-.078.322-.166.14-.301.247a1.2 1.2 0 0 1-.679.301 6 6 0 0 1-1.294.033 2 2 0 0 1-.301-.043v.398q.202.021.569.054.369.031.836.031 1.248 0 1.962-.36t1.048-1.102l2.408-5.12h-1.316ZM18.668 16.406c-.635.513-1.626.773-2.943.773H3.508v-5.683h12.217c1.317 0 2.307.26 2.943.772.531.431.779 1.017.779 1.845 0 .979-.32 1.922-.78 2.293m4.634-2.293c0-2.208-.768-3.967-2.283-5.227-1.406-1.17-3.32-1.762-5.688-1.762H0v19.057h3.508v-4.604H15.33c2.367 0 4.282-.594 5.688-1.763 1.408-1.17 2.283-3.355 2.283-5.701M48.476 15.638v1.726l-18.065.09v-1.72c0-1.006.515-1.927 1.62-2.9.657-.578 4.116-1.251 7.589-1.251 3.56 0 6.446.601 7.08 1.158.878.773 1.776 1.722 1.776 2.897m-18.065 6.118 18.065-.09v4.514l3.84.003V15.851c0-2.749-.83-4.8-2.537-6.27-1.482-1.276-3.733-2.457-10.117-2.457-5.008 0-8.642.85-10.508 2.457-1.731 1.492-2.61 3.633-2.61 6.364v10.33h3.866ZM174.16 15.638v1.726l-18.065.09v-1.72c0-1.006.515-1.927 1.619-2.9.657-.578 4.117-1.251 7.59-1.251 3.559 0 6.446.601 7.079 1.158.879.773 1.777 1.722 1.777 2.897m1.303-6.057c-1.482-1.276-3.733-2.457-10.117-2.457-5.008 0-8.642.85-10.508 2.457-1.731 1.492-2.609 3.633-2.609 6.364v10.33h3.866v-4.52l18.065-.089v4.514l3.84.003V15.851c0-2.749-.83-4.8-2.537-6.27M81.237 21.854l-22.024.057V7.242l-3.763-.084v19.07h25.787ZM145.173 26.204h3.788V7.124h-3.635l-14.348 7.515-14.439-7.515h-3.644v19.08h3.799V11.97l14.286 7.408 14.193-7.403Z"/><path fill="#fff" d="M106.638 3.891a10.2 10.2 0 0 0-3.652-2.88C101.552.338 98.314 0 96.515 0c-1.733 0-4.9.334-6.368 1.002a9.76 9.76 0 0 0-3.686 2.89q-1.553 1.983-2.363 4.766t-.81 6.29q0 3.564.82 6.337.817 2.775 2.335 4.681c.312.391.65.743 1.002 1.077a56.4 56.4 0 0 1 3.68-8.237c1.392-2.584 2.388-5.087 1.578-6.968-.546-1.268-2.073-1.785-3.75-1.723.02-.693.547-1.236 1.244-1.537.577-1.762 1.762-2.657 3.411-2.887 4.134-.058 7.125 3.278 9.282 9.088 1.396 1.421 2.145 2.946 2.343 4.557.544 3.502-.688 6.67-2.624 9.703.129-.047.252-.094.36-.145q2.117-.981 3.669-2.928 1.501-1.868 2.337-4.67.834-2.804.835-6.348 0-3.545-.819-6.338-.818-2.793-2.353-4.719"/></svg>